<svg width="383" height="60" viewBox="0 0 383 60" fill="none" xmlns="http://www.w3.org/2000/svg">
<path fill-rule="evenodd" clip-rule="evenodd" d="M0 39.375L15.9583 33.6458C31.9167 27.9167 63.8333 16.4583 95.75 11.875C127.667 7.29167 159.583 9.58333 191.5 15.3125C223.417 21.0417 255.333 30.2083 287.25 38.2292C319.167 46.25 351.083 53.125 367.042 56.5625L383 60V5H367.042C351.083 5 319.167 5 287.25 5C255.333 5 223.417 5 191.5 5C159.583 5 127.667 5 95.75 5C63.8333 5 31.9167 5 15.9583 5H0V39.375Z" fill="#F9B300"/>
<path fill-rule="evenodd" clip-rule="evenodd" d="M0 32.5L15.9583 27.0833C31.9167 21.6667 63.8333 10.8333 95.75 6.5C127.667 2.16667 159.583 4.33333 191.5 9.75C223.417 15.1667 255.333 23.8333 287.25 31.4167C319.167 39 351.083 45.5 367.042 48.75L383 52V9.53674e-07H367.042C351.083 9.53674e-07 319.167 9.53674e-07 287.25 9.53674e-07C255.333 9.53674e-07 223.417 9.53674e-07 191.5 9.53674e-07C159.583 9.53674e-07 127.667 9.53674e-07 95.75 9.53674e-07C63.8333 9.53674e-07 31.9167 9.53674e-07 15.9583 9.53674e-07H0V32.5Z" fill="#F5F5F5"/>
</svg>
