<svg width="1861" height="203" viewBox="0 0 1861 203" fill="#fff" xmlns="http://www.w3.org/2000/svg">
<path fill-rule="evenodd" clip-rule="evenodd" d="M0 126.875L77.5417 105.729C155.083 84.5833 310.167 42.2917 465.25 25.375C620.333 8.45834 775.417 16.9167 930.5 38.0625C1085.58 59.2083 1240.67 93.0417 1395.75 122.646C1550.83 152.25 1705.92 177.625 1783.46 190.313L1861 203V1.90735e-06H1783.46C1705.92 1.90735e-06 1550.83 1.90735e-06 1395.75 1.90735e-06C1240.67 1.90735e-06 1085.58 1.90735e-06 930.5 1.90735e-06C775.417 1.90735e-06 620.333 1.90735e-06 465.25 1.90735e-06C310.167 1.90735e-06 155.083 1.90735e-06 77.5417 1.90735e-06H0V126.875Z" fill="#FFF7E1"/>
</svg>
