<svg width="375" height="62" viewBox="0 0 375 62" fill="none" xmlns="http://www.w3.org/2000/svg">
<rect width="375" height="62" fill="white"/>
<path fill-rule="evenodd" clip-rule="evenodd" d="M0 23.25L15.625 29.7083C31.25 36.1667 62.5 49.0833 93.75 54.25C125 59.4167 156.25 56.8333 187.5 50.375C218.75 43.9167 250 33.5833 281.25 24.5417C312.5 15.5 343.75 7.75 359.375 3.875L375 0V62H359.375C343.75 62 312.5 62 281.25 62C250 62 218.75 62 187.5 62C156.25 62 125 62 93.75 62C62.5 62 31.25 62 15.625 62H0V23.25Z" fill="#FFF7E1"/>
</svg>
