<svg width="441" height="499" viewBox="0 0 441 499" fill="none" xmlns="http://www.w3.org/2000/svg">
<path fill-rule="evenodd" clip-rule="evenodd" d="M220.6 29.6308C261.187 32.4041 302.128 8.80815 339.569 28.2251C382.357 50.4149 426.958 87.3692 438.579 142.674C450.112 197.562 412.085 247.024 396.791 300.548C381.922 352.582 383.651 414.58 350.331 451.512C315.693 489.904 265.533 502.608 219.13 497.467C174.989 492.577 140.62 454.816 103.968 424.218C65.7426 392.305 9.88962 371.657 1.47929 315.762C-7.02301 259.256 49.1581 220.835 65.2416 166.841C80.4405 115.817 56.2708 43.0219 92.1655 11.3201C128.079 -20.398 176.485 26.6165 220.6 29.6308Z" fill="#F9B300"/>
</svg>
