<svg width="472" height="61" viewBox="0 0 472 61" fill="none" xmlns="http://www.w3.org/2000/svg">
<path fill-rule="evenodd" clip-rule="evenodd" d="M0 38.125L19.6667 31.7708C39.3333 25.4167 78.6667 12.7083 118 7.625C157.333 2.54167 196.667 5.08334 236 11.4375C275.333 17.7917 314.667 27.9583 354 36.8542C393.333 45.75 432.667 53.375 452.333 57.1875L472 61V0H452.333C432.667 0 393.333 0 354 0C314.667 0 275.333 0 236 0C196.667 0 157.333 0 118 0C78.6667 0 39.3333 0 19.6667 0H0V38.125Z" fill="#F9B300"/>
</svg>
