<svg width="21" height="18" viewBox="0 0 21 18" fill="none" xmlns="http://www.w3.org/2000/svg">
<path d="M13.5931 16.1429V14.5556C13.5931 13.7136 13.2647 12.9062 12.6802 12.3108C12.0957 11.7155 11.3029 11.381 10.4762 11.381H5.02167C4.19502 11.381 3.40223 11.7155 2.8177 12.3108C2.23317 12.9062 1.90479 13.7136 1.90479 14.5556V16.1429M14.3723 8.20638L15.9308 9.79369L19.0476 6.61908M10.8658 5.03178C10.8658 6.78507 9.47035 8.20638 7.74894 8.20638C6.02753 8.20638 4.63206 6.78507 4.63206 5.03178C4.63206 3.2785 6.02753 1.85718 7.74894 1.85718C9.47035 1.85718 10.8658 3.2785 10.8658 5.03178Z" stroke="white" stroke-width="2" stroke-linecap="round" stroke-linejoin="round"/>
</svg>
