<svg width="18" height="18" viewBox="0 0 18 18" fill="none" xmlns="http://www.w3.org/2000/svg">
<path d="M12.5805 6.85718H13.2835C14.0292 6.85718 14.7444 7.1582 15.2717 7.69402C15.799 8.22983 16.0953 8.95656 16.0953 9.71432C16.0953 10.4721 15.799 11.1988 15.2717 11.7346C14.7444 12.2704 14.0292 12.5715 13.2835 12.5715H12.5805M12.5805 6.85718H1.33337V13.2857C1.33337 14.0435 1.62962 14.7702 2.15693 15.3061C2.68424 15.8419 3.39943 16.1429 4.14517 16.1429H9.76875C10.5145 16.1429 11.2297 15.8419 11.757 15.3061C12.2843 14.7702 12.5805 14.0435 12.5805 13.2857V6.85718ZM4.14517 1.85718V4.00003M6.95696 1.85718V4.00003M9.76875 1.85718V4.00003" stroke="white" stroke-width="2" stroke-linecap="round" stroke-linejoin="round"/>
</svg>
