<svg width="50" height="50" viewBox="0 0 50 50" fill="none" xmlns="http://www.w3.org/2000/svg">
<circle cx="25" cy="25" r="25" fill="#F9B300"/>
<path d="M37.9992 35.38V31.466C38.0151 30.8261 37.7948 30.2028 37.3802 29.7145C36.9657 29.2261 36.3857 28.9069 35.7507 28.8175C34.4956 28.6523 33.2633 28.3459 32.0772 27.9042C31.6093 27.7287 31.1008 27.6907 30.612 27.7947C30.1231 27.8988 29.6743 28.1405 29.3189 28.4913L27.6587 30.1483C24.3858 28.291 21.676 25.5865 19.815 22.3202L21.4753 20.6632C21.8267 20.3085 22.069 19.8606 22.1732 19.3727C22.2775 18.8848 22.2394 18.3773 22.0635 17.9103C21.621 16.7266 21.314 15.4968 21.1484 14.2442C21.0597 13.6172 20.7455 13.0439 20.2644 12.631C19.7834 12.2181 19.1683 11.9939 18.5339 12.0001H14.6121C14.2491 12.0005 13.8902 12.0762 13.5581 12.2226C13.2261 12.369 12.9283 12.5827 12.6836 12.8503C12.4388 13.1178 12.2526 13.4333 12.1368 13.7766C12.0209 14.1199 11.9779 14.4835 12.0106 14.8443C12.4397 18.8771 13.8146 22.7523 16.0239 26.1559C18.031 29.3083 20.709 31.9809 23.8676 33.984C27.2626 36.1813 31.1266 37.5532 35.1493 37.9894C35.5119 38.0221 35.8774 37.9789 36.2223 37.8625C36.5672 37.7461 36.8839 37.559 37.1522 37.3134C37.4205 37.0678 37.6344 36.7689 37.7802 36.436C37.9261 36.1031 38.0007 35.7434 37.9992 35.38Z" stroke="white" stroke-width="2" stroke-linecap="round" stroke-linejoin="round"/>
</svg>
