<svg width="54" height="56" viewBox="0 0 54 56" fill="none" xmlns="http://www.w3.org/2000/svg">
<g clip-path="url(#clip0_572_8129)">
<path d="M52.9453 23.122H44.2969V20.8506C44.2969 20.258 43.8246 19.7776 43.2422 19.7776H20.4609C19.8785 19.7776 19.4062 20.258 19.4062 20.8506C19.4062 21.4433 19.8785 21.9237 20.4609 21.9237H42.1875V30.1504C42.1875 37.3773 38.3952 44.094 32.2715 47.7486H12.0253C5.90171 44.0941 2.10938 37.3773 2.10938 30.1505V21.9238H9.17578C9.75818 21.9238 10.2305 21.4434 10.2305 20.8508C10.2305 20.2581 9.75818 19.7777 9.17578 19.7777H1.05469C0.472289 19.7777 0 20.2581 0 20.8508V30.1505C0 34.2067 1.07156 38.1839 3.09888 41.6519C4.46607 43.9909 6.24006 46.0563 8.31748 47.7487H1.05469C0.472289 47.7487 0 48.2291 0 48.8218C0 52.727 3.12261 55.904 6.96094 55.904H39.8672C43.7055 55.904 46.8281 52.727 46.8281 48.8218C46.8281 48.2291 46.3558 47.7487 45.7734 47.7487H35.9794C37.8914 46.1911 39.5455 44.3168 40.8628 42.2046H43.8399C49.4422 42.2046 54 37.5673 54 31.8674V24.1951C54 23.6024 53.5278 23.122 52.9453 23.122ZM44.6033 49.8949C44.1204 52.1024 42.1802 53.7579 39.8672 53.7579H6.96094C4.6479 53.7579 2.7078 52.1024 2.22486 49.8949H11.7428H32.5541H44.6033ZM44.2969 30.1505V29.5604H47.6719V31.8674C47.6719 34.0172 45.9528 35.7662 43.8399 35.7662H43.6004C44.0607 33.9413 44.2969 32.0547 44.2969 30.1505ZM51.8906 31.8674C51.8906 36.384 48.2791 40.0584 43.8399 40.0584H42.0448C42.3816 39.3587 42.6824 38.6423 42.9452 37.9123H43.8399C47.1161 37.9123 49.7812 35.2006 49.7812 31.8674V28.4873C49.7812 27.8946 49.309 27.4142 48.7266 27.4142H44.2969V25.2681H51.8906V31.8674Z" fill="currentColor"/>
<path d="M23.1555 6.90205L22.6067 6.20102C21.8012 5.17217 21.8 3.73395 22.6039 2.7036C22.9661 2.23939 22.8897 1.56444 22.4335 1.19605C21.9771 0.827458 21.3138 0.905255 20.9516 1.36946C19.5339 3.1868 19.536 5.7234 20.9568 7.53816L21.5055 8.23919C22.5582 9.58374 22.5598 11.4632 21.5093 12.8098L20.947 13.5307C20.5848 13.9949 20.6612 14.6698 21.1174 15.0382C21.3114 15.1948 21.5427 15.2709 21.7724 15.2709C22.0831 15.2709 22.391 15.1318 22.5993 14.8648L23.1616 14.1439C24.8259 12.0105 24.8235 9.03251 23.1555 6.90205Z" fill="currentColor"/>
<path d="M29.0016 9.31465L28.4528 8.61373C27.6472 7.58477 27.6461 6.14655 28.45 5.11619C28.8121 4.65199 28.7358 3.97703 28.2795 3.60865C27.8232 3.24006 27.1599 3.31785 26.7977 3.78206C25.38 5.59939 25.3821 8.136 26.8029 9.95087L27.3516 10.6519C28.4042 11.9966 28.4058 13.8761 27.3553 15.2226L26.793 15.9434C26.4309 16.4076 26.5072 17.0825 26.9635 17.4509C27.1574 17.6075 27.3887 17.6834 27.6184 17.6834C27.9292 17.6834 28.2371 17.5443 28.4453 17.2774L29.0075 16.5566C30.6719 14.4233 30.6694 11.4453 29.0016 9.31465Z" fill="currentColor"/>
<path d="M17.3094 9.31489L16.7607 8.61397C15.9551 7.58512 15.954 6.14679 16.7577 5.11643C17.1199 4.65223 17.0435 3.97727 16.5873 3.60878C16.1309 3.2403 15.4676 3.3182 15.1055 3.78219C13.6879 5.59953 13.69 8.13624 15.1107 9.951L15.6595 10.652C16.7121 11.9967 16.7136 13.8763 15.6633 15.2226L15.1009 15.9434C14.7387 16.4076 14.815 17.0826 15.2713 17.451C15.4652 17.6076 15.6964 17.6837 15.9262 17.6837C16.2369 17.6837 16.5448 17.5446 16.753 17.2777L17.3154 16.5569C18.9797 14.4235 18.9773 11.4456 17.3094 9.31489Z" fill="currentColor"/>
<path d="M15.8499 20.0917C15.6537 19.8922 15.3816 19.7773 15.1042 19.7773C14.8269 19.7773 14.5548 19.8922 14.3586 20.0917C14.1625 20.2924 14.0496 20.5682 14.0496 20.8504C14.0496 21.1326 14.1624 21.4095 14.3586 21.6101C14.5548 21.8097 14.8269 21.9235 15.1042 21.9235C15.3816 21.9235 15.6537 21.8097 15.8499 21.6101C16.047 21.4095 16.1589 21.1337 16.1589 20.8504C16.1589 20.5682 16.047 20.2913 15.8499 20.0917Z" fill="currentColor"/>
<path d="M38.1797 29.0776C37.5973 29.0776 37.1251 29.558 37.1251 30.1507C37.1251 34.1338 35.5371 38.0482 32.7683 40.8902C32.3583 41.3111 32.3613 41.9905 32.775 42.4077C32.9807 42.6151 33.2491 42.7187 33.5175 42.7187C33.789 42.7186 34.0604 42.6126 34.2666 42.4009C37.4237 39.1602 39.2344 34.6952 39.2344 30.1507C39.2344 29.558 38.7621 29.0776 38.1797 29.0776Z" fill="currentColor"/>
<path d="M30.9957 43.8027C30.7095 43.2864 30.0662 43.1041 29.5589 43.3952L29.5349 43.4091C29.0275 43.7003 28.8483 44.3547 29.1344 44.8709C29.3283 45.2205 29.6857 45.417 30.054 45.417C30.2295 45.417 30.4075 45.3722 30.5712 45.2783L30.5953 45.2645C31.1027 44.9733 31.2819 44.3188 30.9957 43.8027Z" fill="currentColor"/>
</g>
<defs>
<clipPath id="clip0_572_8129">
<rect width="54" height="54.9407" fill="white" transform="translate(0 0.963379)"/>
</clipPath>
</defs>
</svg>
