<?xml version="1.0" encoding="UTF-8"?><!DOCTYPE svg PUBLIC "-//W3C//DTD SVG 1.1//EN" "http://www.w3.org/Graphics/SVG/1.1/DTD/svg11.dtd"><svg xmlns="http://www.w3.org/2000/svg" xmlns:xlink="http://www.w3.org/1999/xlink"><symbol id="icon-cart-empty" viewBox="0 0 21 19"><g fill="none">
<path d="M1 1H4.45455L6.76909 11.8395C6.84807 12.2122 7.06438 12.547 7.38015 12.7853C7.69593 13.0236 8.09106 13.1501 8.49636 13.1429H16.8909C17.2962 13.1501 17.6913 13.0236 18.0071 12.7853C18.3229 12.547 18.5392 12.2122 18.6182 11.8395L20 5.04762H5.31818M8.77273 17.1905C8.77273 17.6376 8.38606 18 7.90909 18C7.43212 18 7.04545 17.6376 7.04545 17.1905C7.04545 16.7434 7.43212 16.381 7.90909 16.381C8.38606 16.381 8.77273 16.7434 8.77273 17.1905ZM18.2727 17.1905C18.2727 17.6376 17.8861 18 17.4091 18C16.9321 18 16.5455 17.6376 16.5455 17.1905C16.5455 16.7434 16.9321 16.381 17.4091 16.381C17.8861 16.381 18.2727 16.7434 18.2727 17.1905Z" stroke="currentColor" stroke-width="1.5" stroke-linecap="round" stroke-linejoin="round"/>
</g></symbol><symbol id="icon-instagram" viewBox="0 0 50 50"><g fill="none">
<path d="M29.7852 25C29.7852 27.6428 27.6428 29.7852 25 29.7852C22.3572 29.7852 20.2148 27.6428 20.2148 25C20.2148 22.3572 22.3572 20.2148 25 20.2148C27.6428 20.2148 29.7852 22.3572 29.7852 25Z" fill="#F9B300"/>
<path d="M36.1908 16.5337C35.9608 15.9103 35.5938 15.3461 35.117 14.883C34.6539 14.4062 34.09 14.0392 33.4663 13.8092C32.9605 13.6127 32.2006 13.3789 30.801 13.3152C29.287 13.2462 28.833 13.2313 25 13.2313C21.1666 13.2313 20.7127 13.2458 19.199 13.3148C17.7994 13.3789 17.0391 13.6127 16.5337 13.8092C15.91 14.0392 15.3458 14.4062 14.883 14.883C14.4062 15.3461 14.0392 15.91 13.8088 16.5337C13.6124 17.0395 13.3785 17.7998 13.3148 19.1994C13.2458 20.713 13.2309 21.167 13.2309 25.0004C13.2309 28.8334 13.2458 29.2873 13.3148 30.8014C13.3785 32.201 13.6124 32.9609 13.8088 33.4667C14.0392 34.0904 14.4058 34.6542 14.8827 35.1173C15.3458 35.5942 15.9096 35.9612 16.5333 36.1912C17.0391 36.388 17.7994 36.6219 19.199 36.6856C20.7127 36.7546 21.1662 36.7691 24.9996 36.7691C28.8334 36.7691 29.2873 36.7546 30.8006 36.6856C32.2002 36.6219 32.9605 36.388 33.4663 36.1912C34.7183 35.7082 35.7079 34.7187 36.1908 33.4667C36.3873 32.9609 36.6211 32.201 36.6852 30.8014C36.7542 29.2873 36.7687 28.8334 36.7687 25.0004C36.7687 21.167 36.7542 20.713 36.6852 19.1994C36.6215 17.7998 36.3876 17.0395 36.1908 16.5337ZM25 32.3715C20.9286 32.3715 17.6281 29.0714 17.6281 25C17.6281 20.9286 20.9286 17.6285 25 17.6285C29.071 17.6285 32.3715 20.9286 32.3715 25C32.3715 29.0714 29.071 32.3715 25 32.3715ZM32.663 19.0598C31.7116 19.0598 30.9402 18.2884 30.9402 17.337C30.9402 16.3857 31.7116 15.6143 32.663 15.6143C33.6143 15.6143 34.3857 16.3857 34.3857 17.337C34.3853 18.2884 33.6143 19.0598 32.663 19.0598Z" fill="#F9B300"/>
<path d="M25 0C11.195 0 0 11.195 0 25C0 38.805 11.195 50 25 50C38.805 50 50 38.805 50 25C50 11.195 38.805 0 25 0ZM39.2689 30.9185C39.1994 32.4467 38.9565 33.49 38.6017 34.4032C37.8559 36.3316 36.3316 37.8559 34.4032 38.6017C33.4904 38.9565 32.4467 39.1991 30.9189 39.2689C29.388 39.3387 28.899 39.3555 25.0004 39.3555C21.1014 39.3555 20.6127 39.3387 19.0815 39.2689C17.5537 39.1991 16.51 38.9565 15.5972 38.6017C14.6389 38.2412 13.7714 37.6762 13.0543 36.9457C12.3241 36.2289 11.7592 35.3611 11.3987 34.4032C11.0439 33.4904 10.8009 32.4467 10.7315 30.9189C10.6609 29.3877 10.6445 28.8986 10.6445 25C10.6445 21.1014 10.6609 20.6123 10.7311 19.0815C10.8006 17.5533 11.0432 16.51 11.3979 15.5968C11.7584 14.6389 12.3238 13.7711 13.0543 13.0543C13.7711 12.3238 14.6389 11.7588 15.5968 11.3983C16.51 11.0435 17.5533 10.8009 19.0815 10.7311C20.6123 10.6613 21.1014 10.6445 25 10.6445C28.8986 10.6445 29.3877 10.6613 30.9185 10.7315C32.4467 10.8009 33.49 11.0435 34.4032 11.3979C35.3611 11.7584 36.2289 12.3238 36.9461 13.0543C37.6762 13.7714 38.2416 14.6389 38.6017 15.5968C38.9568 16.51 39.1994 17.5533 39.2693 19.0815C39.3391 20.6123 39.3555 21.1014 39.3555 25C39.3555 28.8986 39.3391 29.3877 39.2689 30.9185Z" fill="#F9B300"/>
</g></symbol><symbol id="icon-login" viewBox="0 0 19 22"><g fill="none">
<path d="M18 21V18.7778C18 17.599 17.5522 16.4686 16.7552 15.6351C15.9582 14.8016 14.8772 14.3333 13.75 14.3333H5.25C4.12283 14.3333 3.04183 14.8016 2.2448 15.6351C1.44777 16.4686 1 17.599 1 18.7778V21M13.75 5.44444C13.75 7.89904 11.8472 9.88889 9.5 9.88889C7.15279 9.88889 5.25 7.89904 5.25 5.44444C5.25 2.98985 7.15279 1 9.5 1C11.8472 1 13.75 2.98985 13.75 5.44444Z" stroke="currentColor" stroke-width="1.5" stroke-linecap="round" stroke-linejoin="round"/>
</g></symbol><symbol id="icon-phone" viewBox="0 0 50 50"><g fill="none">
<circle cx="25" cy="25" r="25" fill="#F9B300"/>
<path d="M37.9992 35.38V31.466C38.0151 30.8261 37.7948 30.2028 37.3802 29.7145C36.9657 29.2261 36.3857 28.9069 35.7507 28.8175C34.4956 28.6523 33.2633 28.3459 32.0772 27.9042C31.6093 27.7287 31.1008 27.6907 30.612 27.7947C30.1231 27.8988 29.6743 28.1405 29.3189 28.4913L27.6587 30.1483C24.3858 28.291 21.676 25.5865 19.815 22.3202L21.4753 20.6632C21.8267 20.3085 22.069 19.8606 22.1732 19.3727C22.2775 18.8848 22.2394 18.3773 22.0635 17.9103C21.621 16.7266 21.314 15.4968 21.1484 14.2442C21.0597 13.6172 20.7455 13.0439 20.2644 12.631C19.7834 12.2181 19.1683 11.9939 18.5339 12.0001H14.6121C14.2491 12.0005 13.8902 12.0762 13.5581 12.2226C13.2261 12.369 12.9283 12.5827 12.6836 12.8503C12.4388 13.1178 12.2526 13.4333 12.1368 13.7766C12.0209 14.1199 11.9779 14.4835 12.0106 14.8443C12.4397 18.8771 13.8146 22.7523 16.0239 26.1559C18.031 29.3083 20.709 31.9809 23.8676 33.984C27.2626 36.1813 31.1266 37.5532 35.1493 37.9894C35.5119 38.0221 35.8774 37.9789 36.2223 37.8625C36.5672 37.7461 36.8839 37.559 37.1522 37.3134C37.4205 37.0678 37.6344 36.7689 37.7802 36.436C37.9261 36.1031 38.0007 35.7434 37.9992 35.38Z" stroke="white" stroke-width="2" stroke-linecap="round" stroke-linejoin="round"/>
</g></symbol><symbol id="icon-search" viewBox="0 0 19 19"><g fill="none">
<path d="M18 18L13.8917 13.8917M16.1111 8.55556C16.1111 12.7284 12.7284 16.1111 8.55556 16.1111C4.38274 16.1111 1 12.7284 1 8.55556C1 4.38274 4.38274 1 8.55556 1C12.7284 1 16.1111 4.38274 16.1111 8.55556Z" stroke="currentColor" stroke-width="1.5" stroke-linecap="round" stroke-linejoin="round"/>
</g></symbol></svg>